<svg width="46" height="40" viewBox="0 0 46 40" fill="none" xmlns="http://www.w3.org/2000/svg" xmlns:xlink="http://www.w3.org/1999/xlink">
<path d="M4.239,23.625C7.769,28.457 13.738,33.787 23,39.375C32.262,33.787 38.231,28.457 41.761,23.625L34.5,23.625C33.912,23.625 33.384,23.298 33.165,22.8L28.977,13.24L24.382,27.923C24.213,28.463 23.687,28.845 23.073,28.873C22.46,28.902 21.894,28.571 21.665,28.05L16.93,17.242L12.696,23.041C12.429,23.406 11.981,23.625 11.5,23.625L4.239,23.625Z" fill="#000000"/>
<path d="M2.528,21C-6.976,4.411 12.679,-5.249 22.495,3.001C22.666,3.145 22.835,3.294 23,3.449C23.165,3.294 23.334,3.145 23.505,3.001C33.321,-5.249 52.976,4.411 43.472,21L35.473,21L30.085,8.7C29.856,8.179 29.29,7.848 28.677,7.877C28.063,7.905 27.537,8.287 27.368,8.827L22.773,23.51L18.585,13.95C18.386,13.497 17.93,13.183 17.399,13.132C16.868,13.082 16.35,13.304 16.054,13.709L10.731,21L2.528,21Z" fill="#000000"/>
</svg>
