<svg width="42" height="26" viewBox="0 0 42 26" fill="none" xmlns="http://www.w3.org/2000/svg" xmlns:xlink="http://www.w3.org/1999/xlink">
<path d="M10.5,1.813C10.5,1.088 11.088,0.5 11.813,0.5L15.75,0.5C16.475,0.5 17.063,1.088 17.063,1.813C17.063,2.537 16.475,3.125 15.75,3.125L15.75,4.438L26.617,4.438L27.63,1.397C27.809,0.862 28.31,0.5 28.875,0.5L31.5,0.5C32.225,0.5 32.812,1.088 32.812,1.813C32.812,2.537 32.225,3.125 31.5,3.125L29.821,3.125L29.003,5.579L31.122,8.968C32.047,8.586 33.061,8.375 34.125,8.375C38.474,8.375 42,11.901 42,16.25C42,20.599 38.474,24.125 34.125,24.125C29.776,24.125 26.25,20.599 26.25,16.25C26.25,13.907 27.273,11.803 28.897,10.361L27.562,8.226L22.113,16.946C21.873,17.329 21.453,17.563 21,17.563L15.641,17.563C15.016,21.287 11.777,24.125 7.875,24.125C3.526,24.125 0,20.599 0,16.25C0,11.901 3.526,8.375 7.875,8.375C8.939,8.375 9.953,8.586 10.878,8.968L13.125,5.374L13.125,3.125L11.813,3.125C11.088,3.125 10.5,2.537 10.5,1.813ZM14.438,8.226L13.103,10.361C14.417,11.528 15.338,13.128 15.641,14.938L18.632,14.938L14.438,8.226ZM21,13.774L25.194,7.063L16.806,7.063L21,13.774ZM12.96,14.938C12.734,14.06 12.287,13.272 11.682,12.635L10.243,14.938L12.96,14.938ZM9.457,11.243C8.958,11.085 8.426,11 7.875,11C4.976,11 2.625,13.351 2.625,16.25C2.625,19.149 4.976,21.5 7.875,21.5C10.321,21.5 12.377,19.827 12.96,17.563L7.875,17.563C7.398,17.563 6.958,17.304 6.727,16.886C6.496,16.469 6.509,15.959 6.762,15.554L9.457,11.243ZM30.318,12.635C29.424,13.576 28.875,14.849 28.875,16.25C28.875,19.149 31.226,21.5 34.125,21.5C37.024,21.5 39.375,19.149 39.375,16.25C39.375,13.351 37.024,11 34.125,11C33.574,11 33.042,11.085 32.543,11.243L35.238,15.554C35.622,16.169 35.435,16.979 34.821,17.363C34.206,17.747 33.396,17.56 33.012,16.946L30.318,12.635Z" fill="#000000"/>
</svg>
