<svg width="48" height="44" viewBox="0 0 48 44" fill="none" xmlns="http://www.w3.org/2000/svg" xmlns:xlink="http://www.w3.org/1999/xlink">
<path d="M17.885,41.484L17.885,30.714C17.885,29.961 18.779,29.193 19.673,29.193L26.827,29.193C27.721,29.193 28.615,29.961 28.615,30.729L28.615,41.484C28.615,41.891 28.804,42.282 29.139,42.57C29.475,42.858 29.93,43.02 30.404,43.02L44.712,43.02C45.186,43.02 45.641,42.858 45.976,42.57C46.312,42.282 46.5,41.891 46.5,41.484L46.5,19.975C46.5,19.773 46.455,19.573 46.365,19.387C46.275,19.2 46.144,19.03 45.978,18.887L41.135,14.73L41.135,4.612C41.135,4.204 40.946,3.814 40.611,3.525C40.275,3.237 39.82,3.075 39.346,3.075L35.769,3.075C35.295,3.075 34.84,3.237 34.505,3.525C34.169,3.814 33.981,4.204 33.981,4.612L33.981,8.585L24.516,0.451C24.35,0.308 24.153,0.195 23.935,0.117C23.718,0.04 23.485,0 23.25,0C23.015,0 22.782,0.04 22.565,0.117C22.347,0.195 22.15,0.308 21.984,0.451L0.522,18.887C0.356,19.03 0.225,19.2 0.135,19.387C0.045,19.573 0,19.773 0,19.975L0,41.484C0,41.891 0.188,42.282 0.524,42.57C0.859,42.858 1.314,43.02 1.788,43.02L16.096,43.02C16.57,43.02 17.025,42.858 17.361,42.57C17.696,42.282 17.885,41.891 17.885,41.484Z" fill="#F5F5F5"/>
</svg>
