<svg width="46" height="40" viewBox="0 0 46 40" fill="none" xmlns="http://www.w3.org/2000/svg" xmlns:xlink="http://www.w3.org/1999/xlink">
<path d="M3.25,39.5C3.25,39.5 -0.5,39.5 -0.5,36.25C-0.5,33 3.25,23.25 22,23.25C40.75,23.25 44.5,33 44.5,36.25C44.5,39.5 40.75,39.5 40.75,39.5L3.25,39.5ZM22,20C24.984,20 27.845,18.973 29.955,17.144C32.065,15.316 33.25,12.836 33.25,10.25C33.25,7.664 32.065,5.184 29.955,3.356C27.845,1.527 24.984,0.5 22,0.5C19.016,0.5 16.155,1.527 14.045,3.356C11.935,5.184 10.75,7.664 10.75,10.25C10.75,12.836 11.935,15.316 14.045,17.144C16.155,18.973 19.016,20 22,20Z" fill="#FD5107" fill-opacity="0.8"/>
</svg>
