<svg width="42" height="48" viewBox="0 0 42 48" fill="none" xmlns="http://www.w3.org/2000/svg" xmlns:xlink="http://www.w3.org/1999/xlink">
<path d="M20,47.991C21.591,47.991 23.117,47.359 24.243,46.233C25.368,45.108 26,43.582 26,41.991L14,41.991C14,43.582 14.632,45.108 15.757,46.233C16.883,47.359 18.409,47.991 20,47.991ZM22.985,3.288C23.027,2.871 22.981,2.449 22.85,2.051C22.719,1.653 22.506,1.286 22.225,0.975C21.943,0.665 21.6,0.416 21.217,0.246C20.834,0.076 20.419,-0.012 20,-0.012C19.581,-0.012 19.166,0.076 18.783,0.246C18.4,0.416 18.057,0.665 17.775,0.975C17.494,1.286 17.281,1.653 17.15,2.051C17.019,2.449 16.973,2.871 17.015,3.288C13.624,3.976 10.575,5.816 8.385,8.496C6.195,11.176 4.999,14.53 5,17.991C5,21.285 3.5,35.991 -1,38.991L41,38.991C36.5,35.991 35,21.285 35,17.991C35,10.731 29.84,4.671 22.985,3.288Z" fill="#FFFFFF"/>
</svg>
